Coordinates
version=1
nRows=8
nColumns=40
inDegrees=yes

Units are S.I. units (second, meters, Newtons, ...)
Angles are in degrees.

endheader
time	pelvis_tilt	pelvis_list	pelvis_rotation	pelvis_tx	pelvis_ty	pelvis_tz	hip_flexion_r	hip_adduction_r	hip_rotation_r	knee_angle_r	knee_angle_r_beta	ankle_angle_r	subtalar_angle_r	mtp_angle_r	hip_flexion_l	hip_adduction_l	hip_rotation_l	knee_angle_l	knee_angle_l_beta	ankle_angle_l	subtalar_angle_l	mtp_angle_l	lumbar_extension	lumbar_bending	lumbar_rotation	arm_flex_r	arm_add_r	arm_rot_r	elbow_flex_r	pro_sup_r	wrist_flex_r	wrist_dev_r	arm_flex_l	arm_add_l	arm_rot_l	elbow_flex_l	pro_sup_l	wrist_flex_l	wrist_dev_l
      0.33000000	     -1.69015248	      0.67289530	      1.97520678	     -0.59716630	      0.89315297	     -1.46179303	     23.25421003	     -3.61993341	     -8.58302184	    -67.07840705	     -1.17073906	     -0.69050093	    -16.74497672	     18.45332469	     12.27911407	     -0.41948036	      9.38213926	    -30.83787489	     -0.53822245	     13.53191657	     10.59354203	      5.48583723	     -4.57924671	     -4.41021253	     -6.97897798	     -9.71736730	     -9.46591896	     -7.08131492	     34.80542152	     89.95437384	      0.00000000	      0.00000000	     -2.40548030	     12.34033901	     20.15930366	     46.72063572	     89.95437384	      0.00000000	      0.00000000
      0.34000000	     -1.67117164	      0.59099005	      2.49481210	     -0.58498498	      0.89378170	     -1.46334886	     24.38372384	     -3.58156889	     -9.08442156	    -65.52190445	     -1.14357296	      0.36563001	    -16.94901022	     18.35960072	     10.99595135	     -0.37939691	      9.40004167	    -30.11846615	     -0.52566640	     13.72966832	     10.05730671	      5.21690994	     -4.64845888	     -4.26915295	     -7.49176037	     -9.84270020	     -9.39932707	     -7.51472080	     33.32077679	     89.95437384	      0.00000000	      0.00000000	     -1.68333189	     12.72588367	     19.93107183	     48.31557652	     89.95437384	      0.00000000	      0.00000000
      0.35000000	     -1.26590866	      0.48316389	      3.09635205	     -0.57234356	      0.89484631	     -1.46496642	     24.80892799	     -3.58296705	     -9.79218183	    -63.47339967	     -1.10781981	      1.36790314	    -17.08975368	     18.55082361	      9.26746092	     -0.25362704	      9.51881188	    -29.35783867	     -0.51239095	     13.88781615	      9.34961876	      4.77614245	     -5.13116247	     -4.09779789	     -8.10198939	     -9.89089504	     -9.29593625	     -8.13331779	     31.76514713	     89.95437384	      0.00000000	      0.00000000	     -1.04597863	     13.07499245	     19.84527770	     50.13159850	     89.95437384	      0.00000000	      0.00000000
      0.36000000	     -0.84172451	      0.39710647	      3.62404371	     -0.55973465	      0.89574713	     -1.46660874	     25.16120970	     -3.63827354	    -10.47907660	    -61.23482876	     -1.06874938	      2.26026475	    -17.26238355	     19.03606319	      7.48123584	     -0.11534428	      9.78463622	    -28.48932246	     -0.49723248	     13.79278400	      8.31608760	      4.17225892	     -5.63503230	     -3.89637921	     -8.59725436	    -10.02294458	     -9.27116058	     -8.73372801	     30.36297977	     89.95437384	      0.00000000	      0.00000000	     -0.32932800	     13.39613529	     19.72959708	     51.83315378	     89.95437384	      0.00000000	      0.00000000
      0.37000000	     -0.73384096	      0.38464590	      4.07711533	     -0.54762152	      0.89596223	     -1.46794125	     25.83439155	     -3.66196837	    -10.90795050	    -58.75558182	     -1.02547836	      3.26951299	    -17.46574307	     19.40943883	      6.17042776	     -0.09379140	      9.95397717	    -27.81584485	     -0.48547808	     13.83886596	      7.69681832	      3.68928963	     -5.84007479	     -3.81538076	     -9.11577428	    -10.02962457	     -9.22007243	     -9.29196352	     28.90585388	     89.95437384	      0.00000000	      0.00000000	      0.25323017	     13.81934561	     19.57123314	     53.64040249	     89.95437384	      0.00000000	      0.00000000
      0.38000000	     -0.50857315	      0.35412103	      4.61709268	     -0.53511424	      0.89615612	     -1.46917181	     26.23772192	     -3.68875481	    -11.41962435	    -56.04188290	     -0.97811538	      3.96790384	    -17.57056256	     19.92087042	      4.67570048	      0.01107849	     10.12808800	    -27.11173782	     -0.47318909	     13.85409583	      7.05537640	      3.18896138	     -6.12929669	     -3.73170155	     -9.65164318	    -10.14549782	     -9.12532957	     -9.92924605	     27.56090427	     89.95437384	      0.00000000	      0.00000000	      0.84783477	     14.22417171	     19.44658536	     55.41773208	     89.95437384	      0.00000000	      0.00000000
      0.39000000	     -0.18640322	      0.23632900	      4.99396966	     -0.52243852	      0.89627644	     -1.47014031	     26.42314818	     -3.58415774	    -11.94528912	    -53.05330403	     -0.92595483	      4.73640783	    -17.58776525	     21.13316327	      3.05172209	      0.37446732	     10.91336060	    -26.40779830	     -0.46090303	     13.78011857	      5.81308614	      1.84606641	     -6.49661801	     -3.52152687	     -9.98985868	    -10.35089942	     -9.15196298	    -10.38909083	     26.46315967	     89.95437384	      0.00000000	      0.00000000	      1.47175196	     14.63438972	     19.13992550	     57.08911908	     89.95437384	      0.00000000	      0.00000000
      0.40000000	     -0.07696899	      0.27993028	      5.54759910	     -0.51005392	      0.89598050	     -1.47140095	     26.79228806	     -3.78636219	    -12.56892825	    -49.91709478	     -0.87121766	      5.07717636	    -17.52577917	     21.55991831	      1.72190884	      0.42364391	     11.06514793	    -25.73761219	     -0.44920607	     13.64348665	      5.10531252	      1.02155475	     -6.69783203	     -3.47754825	    -10.56588230	    -10.49534067	     -9.08995240	    -11.14603066	     25.39825550	     89.95437384	      0.00000000	      0.00000000	      2.02404146	     15.06797967	     18.96823319	     58.80842738	     89.95437384	      0.00000000	      0.00000000
